<?xml version="1.0" encoding="utf-8"?>
<!-- Generator: Adobe Illustrator 22.0.0, SVG Export Plug-In . SVG Version: 6.00 Build 0)  -->
<svg version="1.1" id="Layer_1" xmlns="http://www.w3.org/2000/svg" xmlns:xlink="http://www.w3.org/1999/xlink" x="0px" y="0px"
	 viewBox="0 0 35 35" style="enable-background:new 0 0 35 35;" xml:space="preserve">
<style type="text/css">
	.st0{fill:#51A8DB;}
</style>
<g>
	<path class="st0" d="M25.5,1.6l6.8,6.8v8.3l-4.9,4.9h-3h-1.6v1.6v5.6l-4.7-8.3l-0.5-0.8h-0.9h-6.4v-1.8V17l-0.8-0.5l-6.8-3.9V7.1
		l5.5-5.5H25.5 M26.2,0H7.6L1.1,6.5v7.1l7.6,4.4v3.4h8L24.4,35V23.2H28l5.9-5.9V7.8L26.2,0L26.2,0z"/>
	<g>
		<polygon class="st0" points="10.3,7.9 10.3,7.1 10.3,3.8 8.7,3.8 8.7,7.1 2.7,7.1 2.7,7.1 2.7,8.6 10.3,8.6 		"/>
		<polygon class="st0" points="12.2,3.8 12.2,5.3 12.2,5.3 13.8,5.3 18.5,5.3 18.5,9.6 20,9.6 20,5.3 20,4.8 20,3.8 13.8,3.8 
			13.8,1.6 12.2,1.6 12.2,3.8 		"/>
		<rect x="22.3" y="1.6" class="st0" width="1.6" height="2.7"/>
		<polygon class="st0" points="22.3,8.1 22.3,9.6 26.7,9.6 27.8,9.6 28.2,9.6 28.2,4.3 26.7,2.8 26.7,8.1 		"/>
		<polygon class="st0" points="15.5,13.8 15.5,13.1 15.5,12.4 15.5,10.4 15.5,8.9 14,8.9 12.5,8.9 12.5,10.4 14,10.4 14,12.4 
			10.3,12.4 8.7,12.4 8.7,13.8 8.7,16.1 9.5,16.5 10.3,17 10.3,13.8 		"/>
		<polygon class="st0" points="6.6,12.4 4.9,12.4 4.9,13.9 6.5,14.8 6.6,14.8 		"/>
		<polygon class="st0" points="24.4,13.8 24.4,12.4 22.7,12.4 18.3,12.4 18.3,13.8 22.7,13.8 22.7,16.6 22.7,18.1 24.4,18.1 
			26,18.1 26,16.6 24.4,16.6 		"/>
		<polygon class="st0" points="29.8,14.8 29.8,12.4 28.2,12.4 28.2,14.8 28.2,16.6 29.8,16.6 32.3,16.6 32.3,14.8 		"/>
		<polygon class="st0" points="17.6,19.7 15.8,16.6 14.1,16.6 15.9,19.7 16.7,19.7 		"/>
	</g>
</g>
</svg>
