<?xml version="1.0" encoding="utf-8"?>
<!-- Generator: Adobe Illustrator 22.0.0, SVG Export Plug-In . SVG Version: 6.00 Build 0)  -->
<svg version="1.1" id="Layer_1" xmlns="http://www.w3.org/2000/svg" xmlns:xlink="http://www.w3.org/1999/xlink" x="0px" y="0px"
	 viewBox="0 0 200 35" style="enable-background:new 0 0 200 35;" xml:space="preserve">
<style type="text/css">
	.st0{fill:#3775B5;}
	.st1{fill:#51A8DB;}
</style>
<g>
	<path class="st0" d="M42.5,0.1v9.8c1.1-2,3.9-3,6-3c4.9,0,8.6,3.1,8.6,8.9c0,5.6-3.8,8.9-8.7,8.9c-2.3,0-4.6-0.9-5.9-3l-0.2,2.7H39
		V0.1H42.5z M42.7,15.7c0,3.3,2.4,5.5,5.4,5.5c3,0,5.4-2.1,5.4-5.5c0-3.5-2.4-5.5-5.4-5.5C45.2,10.2,42.7,12.4,42.7,15.7z"/>
	<path class="st1" d="M63.2,2.2c0,2.9-4.4,2.9-4.4,0C58.7-0.7,63.2-0.7,63.2,2.2z"/>
	<rect x="59.2" y="7.2" class="st0" width="3.6" height="17.1"/>
	<path class="st0" d="M69.5,0.1v24.1h-3.6V0.1H69.5z"/>
	<path class="st1" d="M76.7,2.2c0,2.9-4.4,2.9-4.4,0C72.3-0.7,76.7-0.7,76.7,2.2z"/>
	<rect x="72.7" y="7.2" class="st0" width="3.6" height="17.1"/>
	<path class="st0" d="M91.6,24.2v-9.1c0-2.9-1.7-4.9-4.6-4.9c-2.8,0-4.8,2.3-4.8,5.1v8.9h-3.6v-17H82l0.2,2.5
		C83.8,7.9,85.7,7,87.9,7c4.1,0,7.3,2.9,7.3,8.1v9.1H91.6z"/>
	<path class="st1" d="M145.3,7.2l0.2,2.2c1.2-2.2,3.2-2.6,5-2.6c1.7,0,3.2,0.6,4.2,1.4l-1.6,3.1c-0.9-0.7-1.7-1-3-1
		c-2.4,0-4.6,1.5-4.6,4.7v9.2H142v-17H145.3z"/>
	<path class="st1" d="M169.2,7.2h3.4c0,5.7,0,11.3,0,17h-3.4l-0.2-2.8c-1.1,2.2-3.8,3.2-5.9,3.2c-5,0-8.7-3.2-8.7-9
		c0-5.7,3.9-8.9,8.8-8.9c2.4,0,4.7,1.1,5.8,3.1L169.2,7.2z M158,15.7c0,3.5,2.5,5.7,5.5,5.7c7.3,0,7.3-11.3,0-11.3
		C160.5,10.1,158,12.2,158,15.7z"/>
	<path class="st1" d="M175.3,31.5V7.2h3.3l0.2,2.7c1.3-2,3.6-3,5.8-3c4.9,0,8.4,3.6,8.4,8.6c0,5-3.2,8.6-8.4,8.6
		c-2,0-4.6-0.7-5.8-2.8v10.1H175.3z M189.5,15.5c0-3.1-2.1-5.3-5.2-5.3c-3.2,0-5.2,2.3-5.2,5.3c0,3,2.2,5.3,5.2,5.3
		C187.3,20.8,189.5,18.6,189.5,15.5z"/>
	<rect x="194.5" y="7.2" class="st1" width="3.6" height="17.1"/>
	<path class="st1" d="M67.7,31.4c-2.7,0-5-2.2-5-5h-3.6c0,4.7,3.8,8.6,8.6,8.6c4.7,0,8.6-3.8,8.6-8.6h-3.6
		C72.6,29.1,70.4,31.4,67.7,31.4z"/>
	<path class="st0" d="M106.4,10.1h3.3V6.8c0,0-3.3,0-3.3,0c-4.8,0-8.7,3-8.7,8.7c0,5.7,4,8.7,8.7,8.7c0,0,0,0,0,0v0v4.6h3.3v-4.6
		v-3.3v0h-3.3v0c0,0,0,0,0,0c-2.9,0-5.3-1.8-5.3-5.3C101.1,12.2,103.4,10.1,106.4,10.1z"/>
	<g>
		<path class="st1" d="M25.9,1.6l6.8,6.8v8.3l-4.9,4.9h-3h-1.6v1.6v5.6l-4.7-8.3L18,19.7h-0.9h-6.4v-1.8V17l-0.8-0.5l-6.8-3.9V7.1
			l5.5-5.5H25.9 M26.6,0H8L1.5,6.5v7.1l7.6,4.4v3.4h8L24.8,35V23.2h3.7l5.9-5.9V7.8L26.6,0L26.6,0z"/>
		<g>
			<polygon class="st1" points="10.7,7.9 10.7,7.1 10.7,3.8 9.1,3.8 9.1,7.1 3.1,7.1 3.1,7.1 3.1,8.6 10.7,8.6 			"/>
			<polygon class="st1" points="12.6,3.8 12.6,5.3 12.6,5.3 14.2,5.3 18.9,5.3 18.9,9.6 20.4,9.6 20.4,5.3 20.4,4.8 20.4,3.8 
				14.2,3.8 14.2,1.6 12.6,1.6 12.6,3.8 			"/>
			<rect x="22.7" y="1.6" class="st1" width="1.6" height="2.7"/>
			<polygon class="st1" points="22.7,8.1 22.7,9.6 27.1,9.6 28.2,9.6 28.6,9.6 28.6,4.3 27.1,2.8 27.1,8.1 			"/>
			<polygon class="st1" points="15.9,13.8 15.9,13.1 15.9,12.4 15.9,10.4 15.9,8.9 14.4,8.9 12.9,8.9 12.9,10.4 14.4,10.4 
				14.4,12.4 10.7,12.4 9.1,12.4 9.1,13.8 9.1,16.1 9.9,16.5 10.7,17 10.7,13.8 			"/>
			<polygon class="st1" points="7,12.4 5.4,12.4 5.4,13.9 6.9,14.8 7,14.8 			"/>
			<polygon class="st1" points="24.8,13.8 24.8,12.4 23.1,12.4 18.7,12.4 18.7,13.8 23.1,13.8 23.1,16.6 23.1,18.1 24.8,18.1 
				26.4,18.1 26.4,16.6 24.8,16.6 			"/>
			<polygon class="st1" points="30.2,14.8 30.2,12.4 28.6,12.4 28.6,14.8 28.6,16.6 30.2,16.6 32.7,16.6 32.7,14.8 			"/>
			<polygon class="st1" points="18,19.7 16.2,16.6 14.5,16.6 16.3,19.7 17.1,19.7 			"/>
		</g>
	</g>
	<path class="st0" d="M198.5,2.2c0,2.9-4.4,2.9-4.4,0C194.1-0.7,198.5-0.7,198.5,2.2z"/>
	<path class="st1" d="M131.6,6.8c-5.2,0-8.7,3.6-8.7,8.7c0,5.3,3.5,8.8,9,8.8c0.1,0,0.1,0,0.2,0v0h4.6V21h-4.6c0,0-0.1,0-0.1,0
		c-3,0-5.1-1.7-5.4-4.2H140C140.6,10.1,137,6.8,131.6,6.8z M126.6,13.9c0.5-2.6,2.6-4,5.2-4c2.8,0,4.7,1.4,4.9,4H126.6z"/>
	<path class="st1" d="M119.4,6.7V2.3h-3.5v4.3h-3.7v3.5h3.8l0,8.3c0,1.4-1.1,2.4-2.4,2.4h-1.3v3.4h1.3v0c3.3,0,5.9-2.6,5.9-5.9v-8.3
		h3.2V6.7H119.4z"/>
</g>
</svg>
